<svg width="1920" height="1080" viewBox="0 0 1920 1080" fill="none" xmlns="http://www.w3.org/2000/svg">
    <g clip-path="url(#clip0_7559_719)">
    <path d="M0 110L174 282L350 272L524 154L698 164L872 316L1048 132L1222 196L1396 282L1570 250L1746 196L1920 186V0H1746H1570H1396H1222H1048H872H698H524H350H174H0V110Z" fill="#D9EED4"/>
    <path d="M0 208L174 380L350 412L524 316L698 240L872 390L1048 304L1222 336L1396 390L1570 434L1746 304L1920 370V182L1746 192L1570 246L1396 278L1222 192L1048 128L872 312L698 160L524 150L350 268L174 278L0 106V208Z" fill="#C5B9DD"/>
    <path d="M0 542L174 704L350 552L524 640L698 412L872 586L1048 704L1222 520L1396 586L1570 844L1746 736L1920 596V366L1746 300L1570 430L1396 386L1222 332L1048 300L872 386L698 236L524 312L350 408L174 376L0 204V542Z" fill="#9783C8"/>
    <path d="M0 856L174 1006L350 910H524L698 856L872 984L1048 876L1222 974L1396 910L1570 974L1746 984L1920 898V592L1746 732L1570 840L1396 582L1222 516L1048 700L872 582L698 408L524 636L350 548L174 700L0 538V856Z" fill="#6550B2"/>
    <path d="M0 1080H174H350H524H698H872H1048H1222H1396H1570H1746H1920V892L1746 978L1570 968L1396 904L1222 968L1048 870L872 978L698 850L524 904H350L174 1000L0 850V1080Z" fill="#21209C"/>
    </g>
    <defs>
    <clipPath id="clip0_7559_719">
    <rect width="1920" height="1080" fill="white"/>
    </clipPath>
    </defs>
    </svg>
    