<svg width="103" height="103" viewBox="0 0 103 103" fill="none" xmlns="http://www.w3.org/2000/svg">
    <path d="M18.9749 18.6734C18.1803 19.468 17.7339 20.5457 17.7339 21.6694V30.1434C17.7339 31.2672 18.1803 32.3449 18.9749 33.1395C19.7695 33.9341 20.8472 34.3805 21.9709 34.3805H81.2892C82.413 34.3805 83.4907 33.9341 84.2853 33.1395C85.0799 32.3449 85.5263 31.2672 85.5263 30.1434V21.6694C85.5263 20.5457 85.0799 19.468 84.2853 18.6734C83.4907 17.8788 82.413 17.4324 81.2892 17.4324H21.9709C20.8472 17.4324 19.7695 17.8788 18.9749 18.6734Z" stroke="#001122" stroke-width="8.47405" stroke-linecap="round" stroke-linejoin="round"/>
    <path d="M18.9749 52.5696C18.1803 53.3642 17.7339 54.4419 17.7339 55.5656V80.9877C17.7339 82.1115 18.1803 83.1892 18.9749 83.9838C19.7695 84.7784 20.8472 85.2248 21.9709 85.2248H47.3931C48.5168 85.2248 49.5945 84.7784 50.3891 83.9838C51.1837 83.1892 51.6301 82.1115 51.6301 80.9877V55.5656C51.6301 54.4419 51.1837 53.3642 50.3891 52.5696C49.5945 51.775 48.5168 51.3286 47.3931 51.3286H21.9709C20.8472 51.3286 19.7695 51.775 18.9749 52.5696Z" stroke="#001122" stroke-width="8.47405" stroke-linecap="round" stroke-linejoin="round"/>
    <path d="M69.8192 52.5696C69.0246 53.3642 68.5782 54.4419 68.5782 55.5656V80.9877C68.5782 82.1115 69.0246 83.1892 69.8192 83.9838C70.6138 84.7784 71.6915 85.2248 72.8152 85.2248H81.2892C82.413 85.2248 83.4907 84.7784 84.2853 83.9838C85.0799 83.1892 85.5263 82.1115 85.5263 80.9877V55.5656C85.5263 54.4419 85.0799 53.3642 84.2853 52.5696C83.4907 51.775 82.413 51.3286 81.2892 51.3286H72.8152C71.6915 51.3286 70.6138 51.775 69.8192 52.5696Z" stroke="#001122" stroke-width="8.47405" stroke-linecap="round" stroke-linejoin="round"/>
    </svg>
    