<svg width="103" height="103" viewBox="0 0 103 103" fill="none" xmlns="http://www.w3.org/2000/svg">
    <path d="M81.0318 47.524H21.3514M81.0318 47.524C83.293 47.524 85.4615 48.4222 87.0604 50.0211C88.6593 51.62 89.5576 53.7885 89.5576 56.0497V81.627C89.5576 83.8882 88.6593 86.0567 87.0604 87.6556C85.4615 89.2545 83.293 90.1528 81.0318 90.1528H21.3514C19.0903 90.1528 16.9217 89.2545 15.3228 87.6556C13.7239 86.0567 12.8257 83.8882 12.8257 81.627V56.0497C12.8257 53.7885 13.7239 51.62 15.3228 50.0211C16.9217 48.4222 19.0903 47.524 21.3514 47.524M81.0318 47.524V38.9982C81.0318 36.737 80.1336 34.5685 78.5347 32.9696C76.9358 31.3707 74.7672 30.4724 72.506 30.4724M21.3514 47.524V38.9982C21.3514 36.737 22.2497 34.5685 23.8486 32.9696C25.4475 31.3707 27.616 30.4724 29.8772 30.4724M72.506 30.4724V21.9467C72.506 19.6855 71.6078 17.5169 70.0089 15.918C68.41 14.3191 66.2414 13.4209 63.9803 13.4209H38.403C36.1418 13.4209 33.9732 14.3191 32.3744 15.918C30.7755 17.5169 29.8772 19.6855 29.8772 21.9467V30.4724M72.506 30.4724H29.8772" stroke="white" stroke-width="8.52577" stroke-linecap="round" stroke-linejoin="round"/>
    </svg>
    