<svg width="95" height="95" viewBox="0 0 95 95" fill="none" xmlns="http://www.w3.org/2000/svg">
    <path d="M67.4101 78.3811H87.005V70.5431C87.0048 68.0998 86.2434 65.7172 84.8266 63.7266C83.4098 61.7359 81.408 60.2362 79.0994 59.4358C76.7909 58.6354 74.2903 58.5741 71.9454 59.2605C69.6004 59.9469 67.5276 61.3468 66.0149 63.2656M67.4101 78.3811H28.2204M67.4101 78.3811V70.5431C67.4101 67.9723 66.9163 65.5151 66.0149 63.2656M66.0149 63.2656C64.5596 59.6286 62.048 56.5111 58.804 54.3151C55.5601 52.1192 51.7326 50.9455 47.8152 50.9455C43.8979 50.9455 40.0704 52.1192 36.8264 54.3151C33.5825 56.5111 31.0708 59.6286 29.6155 63.2656M28.2204 78.3811H8.62549V70.5431C8.62567 68.0998 9.38708 65.7172 10.8039 63.7266C12.2207 61.7359 14.2225 60.2362 16.531 59.4358C18.8396 58.6354 21.3401 58.5741 23.6851 59.2605C26.03 59.9469 28.1029 61.3468 29.6155 63.2656M28.2204 78.3811V70.5431C28.2204 67.9723 28.7142 65.5151 29.6155 63.2656M59.5722 27.4344C59.5722 30.5525 58.3335 33.543 56.1286 35.7478C53.9238 37.9527 50.9334 39.1913 47.8152 39.1913C44.6971 39.1913 41.7067 37.9527 39.5018 35.7478C37.297 33.543 36.0583 30.5525 36.0583 27.4344C36.0583 24.3163 37.297 21.3259 39.5018 19.121C41.7067 16.9162 44.6971 15.6775 47.8152 15.6775C50.9334 15.6775 53.9238 16.9162 56.1286 19.121C58.3335 21.3259 59.5722 24.3163 59.5722 27.4344ZM83.086 39.1913C83.086 41.2701 82.2602 43.2637 80.7903 44.7336C79.3204 46.2035 77.3268 47.0293 75.2481 47.0293C73.1693 47.0293 71.1757 46.2035 69.7058 44.7336C68.2359 43.2637 67.4101 41.2701 67.4101 39.1913C67.4101 37.1126 68.2359 35.119 69.7058 33.6491C71.1757 32.1792 73.1693 31.3534 75.2481 31.3534C77.3268 31.3534 79.3204 32.1792 80.7903 33.6491C82.2602 35.119 83.086 37.1126 83.086 39.1913ZM28.2204 39.1913C28.2204 41.2701 27.3946 43.2637 25.9247 44.7336C24.4548 46.2035 22.4612 47.0293 20.3824 47.0293C18.3037 47.0293 16.31 46.2035 14.8401 44.7336C13.3702 43.2637 12.5445 41.2701 12.5445 39.1913C12.5445 37.1126 13.3702 35.119 14.8401 33.6491C16.31 32.1792 18.3037 31.3534 20.3824 31.3534C22.4612 31.3534 24.4548 32.1792 25.9247 33.6491C27.3946 35.119 28.2204 37.1126 28.2204 39.1913Z" stroke="#F1F1F1" stroke-width="7.83795" stroke-linecap="round" stroke-linejoin="round"/>
    </svg>
    